<svg style="max-height: 500px" xml:space="preserve" xmlns:xlink="http://www.w3.org/1999/xlink" xmlns="http://www.w3.org/2000/svg" version="1.1" viewBox="0 0 134.20499999999998 118" width="134.20499999999998" height="118">
    <g transform="matrix(1,0,0,1,-923.903,-1002.24)">
        <g transform="matrix(1,0,0,1,868.613,946.949)">
            <g transform="matrix(1,0,0,1,90.5258,133.443)">
                <path style="fill:rgb(79,70,229);fill-rule:nonzero;" d="M0,19.922C-8.683,19.922 -15.73,12.875 -15.73,4.192C-14.851,-16.658 14.845,-16.652 15.73,4.192C15.73,12.875 8.667,19.922 0,19.922M0,-31.043C-19.426,-31.043 -35.235,-15.235 -35.235,4.192C-33.302,50.965 33.319,50.935 35.251,4.192C35.251,-15.235 19.427,-31.043 0,-31.043"/>
            </g>
        </g>
        <g transform="matrix(1,0,0,1,868.613,946.949)">
            <g transform="matrix(1,0,0,1,189.355,55.291)">
                <path style="fill:rgb(79,70,229);fill-rule:nonzero;" d="M0,113.719L-27.583,113.501L-79.367,23.775L-88.124,38.95L-101.844,15.175L-93.085,0.012L-93.085,0L-65.635,0L0,113.719Z"/>
            </g>
        </g>
        <g transform="matrix(1,0,0,1,868.613,946.949)">
            <g transform="matrix(1,0,0,1,-3,17.7851)">
                <g transform="matrix(90,0,0,90,220.291,127.055)">
                    <path style="fill:rgb(247,244,255);fill-rule:nonzero;" d="M0.174,-0L0.003,-0.716L0.151,-0.716L0.259,-0.224L0.39,-0.716L0.562,-0.716L0.688,-0.216L0.797,-0.716L0.943,-0.716L0.769,-0L0.616,-0L0.473,-0.535L0.331,-0L0.174,-0Z"/>
                </g>
                <g transform="matrix(90,0,0,90,305.411,127.055)">
                    <path style="fill:rgb(247,244,255);fill-rule:nonzero;" d="M0.04,-0.267C0.04,-0.312 0.051,-0.356 0.074,-0.399C0.096,-0.442 0.128,-0.474 0.169,-0.497C0.21,-0.519 0.256,-0.53 0.307,-0.53C0.386,-0.53 0.45,-0.505 0.5,-0.454C0.55,-0.403 0.575,-0.339 0.575,-0.261C0.575,-0.182 0.55,-0.117 0.499,-0.066C0.449,-0.014 0.385,0.012 0.308,0.012C0.261,0.012 0.215,0.001 0.172,-0.021C0.129,-0.042 0.096,-0.073 0.074,-0.115C0.051,-0.156 0.04,-0.207 0.04,-0.267ZM0.181,-0.259C0.181,-0.208 0.193,-0.168 0.217,-0.141C0.242,-0.114 0.272,-0.1 0.308,-0.1C0.343,-0.1 0.373,-0.114 0.398,-0.141C0.422,-0.168 0.434,-0.208 0.434,-0.26C0.434,-0.311 0.422,-0.35 0.398,-0.377C0.373,-0.405 0.343,-0.418 0.308,-0.418C0.272,-0.418 0.242,-0.405 0.217,-0.377C0.193,-0.35 0.181,-0.311 0.181,-0.259Z"/>
                </g>
                <g transform="matrix(90,0,0,90,362.187,127.055)">
                    <path style="fill:rgb(247,244,255);fill-rule:nonzero;" d="M0.203,-0L0.066,-0L0.066,-0.519L0.193,-0.519L0.193,-0.445C0.215,-0.48 0.235,-0.503 0.252,-0.514C0.27,-0.525 0.289,-0.53 0.312,-0.53C0.343,-0.53 0.373,-0.522 0.402,-0.504L0.359,-0.385C0.336,-0.4 0.315,-0.407 0.295,-0.407C0.276,-0.407 0.259,-0.402 0.246,-0.391C0.233,-0.381 0.222,-0.362 0.215,-0.334C0.207,-0.306 0.203,-0.248 0.203,-0.16L0.203,-0Z"/>
                </g>
                <g transform="matrix(90,0,0,90,399.011,127.055)">
                    <path style="fill:rgb(247,244,255);fill-rule:nonzero;" d="M0.524,-0.365L0.389,-0.341C0.384,-0.368 0.374,-0.388 0.358,-0.402C0.342,-0.416 0.321,-0.422 0.295,-0.422C0.261,-0.422 0.233,-0.411 0.213,-0.387C0.193,-0.363 0.183,-0.324 0.183,-0.269C0.183,-0.207 0.193,-0.164 0.214,-0.138C0.234,-0.113 0.262,-0.1 0.297,-0.1C0.323,-0.1 0.344,-0.108 0.361,-0.122C0.377,-0.137 0.389,-0.163 0.396,-0.199L0.531,-0.176C0.517,-0.114 0.49,-0.067 0.45,-0.036C0.41,-0.004 0.357,0.012 0.291,0.012C0.215,0.012 0.154,-0.012 0.109,-0.06C0.064,-0.108 0.042,-0.174 0.042,-0.259C0.042,-0.344 0.064,-0.411 0.109,-0.459C0.155,-0.506 0.216,-0.53 0.293,-0.53C0.356,-0.53 0.406,-0.517 0.444,-0.49C0.481,-0.462 0.508,-0.421 0.524,-0.365Z"/>
                </g>
            </g>
        </g>
    </g>
</svg>